<?xml version="1.0" standalone="no"?>
<!DOCTYPE svg PUBLIC "-//W3C//DTD SVG 20010904//EN"
 "http://www.w3.org/TR/2001/REC-SVG-20010904/DTD/svg10.dtd">
<svg version="1.0" xmlns="http://www.w3.org/2000/svg"
 width="816.000000pt" height="816.000000pt" viewBox="0 0 816.000000 816.000000"
 preserveAspectRatio="xMidYMid meet">
<metadata>
Created by potrace 1.14, written by Peter Selinger 2001-2017
</metadata>
<g transform="translate(0.000000,816.000000) scale(0.100000,-0.100000)"
fill="#000000" stroke="none">
<path d="M860 6202 l0 -49 149 -6 c213 -10 314 -45 398 -141 50 -57 61 -93 74
-246 14 -171 6 -3017 -10 -3150 -34 -298 -157 -422 -400 -407 -233 14 -394
139 -349 269 6 18 28 60 48 93 20 33 58 94 83 135 148 240 30 530 -252 616
-61 18 -190 18 -256 -1 -161 -47 -286 -193 -316 -368 -35 -210 48 -439 225
-619 194 -197 375 -292 671 -349 107 -21 465 -18 580 4 268 53 492 166 665
337 201 198 277 404 310 840 6 81 10 615 10 1340 0 727 4 1242 10 1299 26 245
139 331 458 348 l122 6 0 49 0 48 -1110 0 -1110 0 0 -48z"/>
<path d="M3270 6202 l0 -49 128 -6 c189 -10 285 -41 370 -121 48 -45 71 -95
83 -184 15 -118 7 -3386 -9 -3432 -26 -78 -76 -144 -131 -177 -82 -49 -149
-65 -303 -71 l-138 -5 0 -53 0 -54 1055 0 1055 0 0 54 0 53 -84 6 c-161 11
-273 54 -343 130 -80 86 -77 56 -80 892 l-3 740 77 64 78 63 37 -43 c95 -112
1004 -1262 1062 -1342 140 -197 183 -324 134 -397 -37 -56 -109 -85 -260 -105
l-48 -6 0 -55 0 -54 1090 0 1090 0 0 53 0 54 -95 15 c-116 19 -236 73 -341
153 -169 130 -307 291 -1129 1320 -438 548 -795 1000 -793 1005 4 11 1387
1117 1571 1256 217 164 305 206 477 228 l95 12 3 52 3 52 -815 0 -816 0 0 -50
c0 -27 1 -50 3 -50 96 -6 235 -22 275 -30 108 -24 192 -113 192 -206 0 -84
-73 -198 -204 -321 -40 -37 -360 -301 -712 -585 -351 -284 -714 -578 -806
-653 l-168 -136 0 778 c1 843 3 891 54 977 62 107 161 153 364 172 l72 7 0 48
0 49 -1045 0 -1045 0 0 -48z"/>
</g>
</svg>
